PathFileType	4	(X/Y/Z)	s10c0302.trc
DataRate	CameraRate	NumFrames	NumMarkers	Units	OrigDataRate	OrigDataStartFrame	OrigNumFrames
200	200	4	50	mm	200	1500	2000
Frame#	Time	racr			lacr			c7			jug			rlel			rdr			llel			ldr			s2			lic			ric			lasi			rasi			rpsi			lpsi			rgt			lgt			rth1			rth2			rth3			rth4			rlfc			rmfc			rsh1			rsh2			rsh3			rsh4			rlmal			rmmal			rcal			rtoe			rmt5			lth1			lth2			lth4			lth3			llfc			lmfc			llmal			lmmal			lcal			lmt5			lsh1			lsh2			lsh3			lsh4			ltoe			SBIKE			LBIKE			RBIKE			
		X1	Y1	Z1	X2	Y2	Z2	X3	Y3	Z3	X4	Y4	Z4	X5	Y5	Z5	X6	Y6	Z6	X7	Y7	Z7	X8	Y8	Z8	X9	Y9	Z9	X10	Y10	Z10	X11	Y11	Z11	X12	Y12	Z12	X13	Y13	Z13	X14	Y14	Z14	X15	Y15	Z15	X16	Y16	Z16	X17	Y17	Z17	X18	Y18	Z18	X19	Y19	Z19	X20	Y20	Z20	X21	Y21	Z21	X22	Y22	Z22	X23	Y23	Z23	X24	Y24	Z24	X25	Y25	Z25	X26	Y26	Z26	X27	Y27	Z27	X28	Y28	Z28	X29	Y29	Z29	X30	Y30	Z30	X31	Y31	Z31	X32	Y32	Z32	X33	Y33	Z33	X34	Y34	Z34	X35	Y35	Z35	X36	Y36	Z36	X37	Y37	Z37	X38	Y38	Z38	X39	Y39	Z39	X40	Y40	Z40	X41	Y41	Z41	X42	Y42	Z42	X43	Y43	Z43	X44	Y44	Z44	X45	Y45	Z45	X46	Y46	Z46	X47	Y47	Z47	X48	Y48	Z48	X49	Y49	Z49	X50	Y50	Z50	
1500	7.5000	695.475217	1283.464814	-48.735004	675.905322	1316.193230	-377.739339	685.042382	1326.646543	-206.575731	666.108241	1182.954193	-220.066935	572.871763	1053.422450	62.593302	639.034224	873.195471	-51.543045	569.677182	1073.288716	-496.528224	645.248793	879.819593	-414.050927	150.347732	1167.944219	-186.528630	301.687813	1169.159059	-348.735099	337.474174	1130.126151	-66.132978	321.509340	1068.620741	-329.044823	315.523523	1056.534517	-72.381013	204.208268	1210.291272	-123.583022	205.223025	1222.260421	-234.977930	200.848915	1056.437975	-7.471432	204.626417	1045.419210	-387.536076	270.462825	917.893048	2.766217	337.757721	862.731718	-16.377555	366.506434	783.326285	-30.041453	366.336795	886.599644	-23.145212	436.542277	687.072410	-60.956908	421.967458	685.458600	-173.807557	371.264117	592.720312	-28.990427	344.561662	509.494409	-46.144220	283.739705	448.371243	-43.484478	364.747519	500.991306	-78.159876	227.487336	362.777000	-56.318098	244.878184	378.523222	-139.530714	166.710700	343.289810	-101.104728	407.360442	307.947804	-107.382674	325.789646	286.463615	-42.316728	265.667513	922.778012	-403.779147	327.010013	862.130979	-392.144304	356.442785	880.624167	-379.974516	350.401754	776.866454	-387.373163	391.765885	673.155066	-369.259149	385.709938	661.003217	-251.251978	66.934754	473.120621	-394.741148	75.557424	458.750613	-314.858494	27.723037	509.024366	-346.497007	18.534072	329.722107	-398.781118	283.857696	619.293888	-409.000289	230.190028	552.443386	-399.244244	146.911546	519.143312	-403.570146	247.901215	532.537770	-372.385044	64.873477	257.703566	-338.973044	-217.298474	832.330068	-213.724680	-103.853980	80.625086	-418.306659	-103.842576	80.531409	-18.305432	
1501	7.5050	692.972551	1284.740209	-48.733491	678.079204	1318.180551	-377.885103	684.434981	1327.891715	-206.973704	666.044852	1184.252915	-222.211655	570.000038	1054.089790	58.816339	639.144204	872.879558	-51.937268	572.402525	1074.320399	-496.771533	645.680340	879.802065	-413.903639	151.292712	1167.269733	-182.470332	299.409681	1169.427726	-347.191736	340.486956	1128.899338	-65.795632	318.380287	1067.933889	-327.298508	318.497104	1055.049853	-71.489694	204.468868	1210.024169	-119.249944	204.756358	1221.588715	-231.758084	203.871194	1054.352009	-4.048119	203.128680	1045.180877	-384.271014	271.690469	913.499925	3.540831	337.085599	856.215965	-16.794283	363.064819	775.852794	-31.468481	366.372411	879.090987	-23.896557	428.510035	676.472132	-63.765431	408.821684	673.642671	-176.055142	364.273692	583.589561	-30.088248	338.885607	499.758059	-46.999642	279.268083	437.837082	-43.808893	359.989655	491.467053	-78.939890	223.984342	351.080769	-56.252742	241.019623	366.838962	-139.990889	163.257363	331.492792	-100.941519	404.323830	297.644160	-107.447026	322.952684	275.624568	-42.296910	265.977476	923.960825	-402.172334	328.560733	864.497102	-390.926895	357.614703	883.480690	-378.460589	353.092053	779.237802	-386.106678	398.274314	677.787141	-368.713792	390.119759	665.546793	-249.442603	72.291284	482.334340	-394.513310	80.186196	466.905970	-316.049133	33.804355	518.842032	-346.626230	21.378591	339.723543	-398.846606	291.809193	623.774269	-407.745096	237.256576	557.579830	-398.141362	153.612600	525.429700	-403.227456	253.040196	537.286551	-369.857889	66.351570	266.652777	-338.890437	-217.270862	832.296426	-213.973381	-103.811211	80.604314	-418.312664	-103.840139	80.515266	-18.298029	
1502	7.5100	690.524861	1285.898959	-48.677598	680.234678	1319.911673	-377.985099	683.850578	1329.046427	-207.260321	666.016443	1185.321645	-223.831853	567.310243	1054.618711	55.154952	639.256943	872.796963	-52.582980	575.096904	1075.341162	-496.994169	646.129742	879.792491	-413.712402	151.695385	1166.618760	-179.142841	297.315523	1169.453117	-345.871826	343.548319	1127.727871	-65.631899	315.695853	1067.414963	-325.603115	321.649554	1053.490561	-70.686943	205.707269	1208.879336	-115.534225	204.289809	1220.606927	-228.469580	207.440390	1051.292150	-1.686063	201.512978	1044.740874	-381.046665	272.581205	908.247863	4.355577	336.301814	849.470087	-17.368763	359.519305	768.269399	-33.040194	366.154456	871.298101	-25.021062	420.349200	666.795287	-66.847250	399.653086	663.797069	-177.173896	356.484101	575.695267	-31.033321	332.623429	491.326998	-47.452173	273.948245	428.258249	-44.046269	354.044622	483.161524	-79.030084	219.978058	339.949496	-56.097819	237.277974	355.296713	-140.315419	159.537094	320.217671	-100.745316	400.790558	287.265269	-107.479784	319.440618	265.067792	-42.272844	266.099615	925.022872	-400.483255	329.937862	866.850138	-389.528857	358.602368	886.337638	-376.796918	356.167616	782.072819	-385.391489	404.749429	682.420613	-368.227214	397.235313	671.015958	-248.013298	77.714338	491.509958	-394.299937	85.274054	476.802061	-313.945581	39.789967	528.527930	-346.555634	24.887201	349.685206	-398.914805	299.555802	628.576999	-406.709464	243.967277	562.146905	-396.369585	159.774905	531.614584	-402.527047	259.153161	542.970648	-368.042822	68.748779	276.003011	-339.065228	-217.272576	832.278434	-213.988353	-103.830396	80.582824	-418.293228	-103.836254	80.473910	-18.306732	
1503	7.5150	688.246884	1286.915196	-48.752752	682.414333	1321.461974	-378.058073	682.929301	1330.203598	-207.428100	666.013802	1186.669659	-225.569509	564.274024	1054.858925	51.264385	639.300912	872.427872	-52.963539	577.776449	1076.425923	-497.131657	646.589094	879.894852	-413.710721	152.079195	1165.382454	-174.836706	295.143272	1169.282577	-344.591877	346.750988	1125.793801	-66.382373	312.953774	1066.819771	-324.049607	324.808868	1051.892902	-69.933801	207.798564	1205.475777	-112.779389	203.993587	1219.401527	-224.458308	211.306000	1047.874929	0.694535	199.750150	1044.107178	-377.887688	274.506621	903.424434	5.184069	335.391266	842.169843	-18.107897	355.579239	760.398535	-34.930115	365.797778	862.976954	-26.429311	412.045619	658.414530	-70.172053	388.745800	655.133090	-178.920804	348.051811	568.005641	-32.406717	325.832844	483.220917	-47.933558	268.290259	419.026468	-44.423574	347.590926	475.031243	-79.332166	215.518343	329.321790	-55.783539	232.873178	344.294065	-140.530296	156.171811	308.809494	-101.538628	396.675246	277.057273	-107.579964	315.348155	254.755930	-42.226587	266.172283	926.001221	-398.856400	331.230914	869.201351	-387.996337	359.412550	889.229728	-375.005400	359.217272	784.959451	-384.645163	411.288006	687.126797	-367.734543	401.872767	675.574955	-246.719602	83.265342	500.732846	-394.086779	90.324546	486.507061	-313.092691	45.718833	538.101038	-346.427205	28.931128	359.532708	-398.971787	307.031586	633.634821	-405.948457	250.556024	567.643677	-395.273828	166.040595	538.435679	-402.153337	265.029075	548.902632	-366.371606	72.058960	285.314626	-339.103039	-217.276150	832.269585	-213.988014	-103.853834	80.564300	-418.293202	-103.872842	80.488043	-18.310243	
